<svg width="48" height="48" viewBox="0 0 48 48" fill="none" xmlns="http://www.w3.org/2000/svg">
<path d="M37.8617 11.2666C35.3122 10.0968 32.5783 9.23496 29.7198 8.74133C29.6678 8.7318 29.6157 8.75561 29.5889 8.80323C29.2373 9.4286 28.8479 10.2444 28.5751 10.8857C25.5007 10.4254 22.4419 10.4254 19.4305 10.8857C19.1578 10.2302 18.7541 9.4286 18.401 8.80323C18.3742 8.7572 18.3221 8.73339 18.2701 8.74133C15.4132 9.23337 12.6793 10.0952 10.1282 11.2666C10.1062 11.2761 10.0872 11.292 10.0746 11.3126C4.88899 19.0599 3.46842 26.6167 4.1653 34.0799C4.16845 34.1164 4.18895 34.1513 4.21733 34.1735C7.63868 36.6861 10.9528 38.2115 14.2055 39.2225C14.2575 39.2384 14.3127 39.2194 14.3458 39.1765C15.1152 38.1257 15.8011 37.0179 16.3891 35.8528C16.4238 35.7846 16.3907 35.7036 16.3198 35.6767C15.2319 35.264 14.196 34.7608 13.1996 34.1894C13.1207 34.1434 13.1144 34.0307 13.1869 33.9767C13.3966 33.8196 13.6063 33.6561 13.8066 33.491C13.8428 33.4609 13.8933 33.4545 13.9359 33.4736C20.4822 36.4623 27.5692 36.4623 34.0383 33.4736C34.0808 33.4529 34.1313 33.4593 34.1691 33.4894C34.3694 33.6545 34.5791 33.8196 34.7903 33.9767C34.8629 34.0307 34.8581 34.1434 34.7793 34.1894C33.7829 34.7719 32.747 35.264 31.6575 35.6751C31.5866 35.702 31.555 35.7846 31.5897 35.8528C32.1904 37.0163 32.8763 38.1242 33.6315 39.1749C33.663 39.2194 33.7198 39.2384 33.7718 39.2225C37.0402 38.2115 40.3544 36.6861 43.7757 34.1735C43.8057 34.1513 43.8246 34.118 43.8278 34.0815C44.6618 25.4533 42.4308 17.9584 37.9137 11.3142C37.9027 11.292 37.8838 11.2761 37.8617 11.2666ZM17.3667 29.5357C15.3959 29.5357 13.7719 27.7262 13.7719 25.5041C13.7719 23.282 15.3643 21.4725 17.3667 21.4725C19.3848 21.4725 20.993 23.2978 20.9615 25.5041C20.9615 27.7262 19.369 29.5357 17.3667 29.5357ZM30.6579 29.5357C28.6871 29.5357 27.0631 27.7262 27.0631 25.5041C27.0631 23.282 28.6556 21.4725 30.6579 21.4725C32.676 21.4725 34.2842 23.2978 34.2527 25.5041C34.2527 27.7262 32.676 29.5357 30.6579 29.5357Z" fill="#5865F2"/>
</svg>
