<svg width="48" height="48" viewBox="0 0 48 48" fill="none" xmlns="http://www.w3.org/2000/svg">
<path d="M7 9.41333C7 8.08048 8.08048 7 9.41333 7H38.5867C39.9195 7 41 8.08048 41 9.41333V38.5866C41 39.9194 39.9195 40.9999 38.5867 40.9999H9.41333C8.08049 40.9999 7 39.9194 7 38.5866V9.41333Z" fill="#0A66C2"/>
<path d="M14.6315 17.5587C16.2605 17.5587 17.581 16.2381 17.581 14.6092C17.581 12.9802 16.2605 11.6597 14.6315 11.6597C13.0025 11.6597 11.682 12.9802 11.682 14.6092C11.682 16.2381 13.0025 17.5587 14.6315 17.5587Z" fill="white"/>
<path d="M20.2822 19.7384H25.1705V21.9778C25.1705 21.9778 26.497 19.3248 30.1062 19.3248C33.3258 19.3248 35.9928 20.9108 35.9928 25.7452V35.9395H30.9272V26.9804C30.9272 24.1286 29.4047 23.815 28.2445 23.815C25.8367 23.815 25.4245 25.8918 25.4245 27.3524V35.9395H20.2822V19.7384Z" fill="white"/>
<path d="M12.0604 19.7384H17.2027V35.9395H12.0604V19.7384Z" fill="white"/>
</svg>
