<svg width="16" height="21" viewBox="0 0 16 21" fill="none" xmlns="http://www.w3.org/2000/svg">
<path fill-rule="evenodd" clip-rule="evenodd" d="M11.4001 2.0129L12.2135 2.1142C14.0908 2.34801 15.5 3.94359 15.5 5.83545V16.3249C15.5 18.1618 14.1317 19.711 12.3089 19.938C9.28134 20.3151 6.21866 20.3151 3.19107 19.938C1.36826 19.711 0 18.1618 0 16.3249V5.83545C0 3.94359 1.4092 2.34801 3.28655 2.1142L4.0999 2.0129C4.42208 0.852056 5.48654 0 6.75 0H8.75C10.0135 0 11.0779 0.852056 11.4001 2.0129ZM4 3.53693L3.47193 3.6027C2.34552 3.74299 1.5 4.70034 1.5 5.83545V16.3249C1.5 17.405 2.30458 18.316 3.37645 18.4495C6.28093 18.8112 9.21907 18.8112 12.1235 18.4495C13.1954 18.316 14 17.405 14 16.3249V5.83545C14 4.70034 13.1545 3.74299 12.0281 3.6027L11.5 3.53693V4.75C11.5 5.16421 11.1642 5.5 10.75 5.5H4.75C4.33579 5.5 4 5.16421 4 4.75V3.53693ZM5.5 2.75C5.5 2.05964 6.05964 1.5 6.75 1.5H8.75C9.44036 1.5 10 2.05964 10 2.75V4H5.5V2.75Z" fill="white"/>
</svg>
