<svg width="22" height="23" viewBox="0 0 22 23" fill="none" xmlns="http://www.w3.org/2000/svg">
<path d="M15.1421 0C15.3189 0 15.4885 0.0702378 15.6135 0.195262L19.3848 3.9665C19.6451 4.22685 19.6451 4.64896 19.3848 4.90931L7.12825 17.1658C7.0445 17.2496 6.93994 17.3095 6.82533 17.3394L1.72076 18.6728C1.49177 18.7326 1.24823 18.6665 1.08088 18.4992C0.91352 18.3318 0.847441 18.0883 0.907254 17.8593L2.24059 12.7547C2.27052 12.6401 2.33045 12.5355 2.41421 12.4518L14.6707 0.195262C14.7957 0.0702378 14.9653 0 15.1421 0Z" fill="black"/>
<path d="M1 21C0.447715 21 0 21.4477 0 22C0 22.5523 0.447715 23 1 23H21C21.5523 23 22 22.5523 22 22C22 21.4477 21.5523 21 21 21H1Z" fill="black"/>
</svg>
