<svg width="24" height="22" viewBox="0 0 24 22" fill="none" xmlns="http://www.w3.org/2000/svg">
<path fill-rule="evenodd" clip-rule="evenodd" d="M10.958 0.330037C11.6285 -0.111614 12.4987 -0.110027 13.167 0.33492L23.4326 7.16988C23.7867 7.4058 23.9989 7.80302 23.999 8.22847C23.999 8.93122 23.4293 9.50094 22.7266 9.50094H21.2227V19.6015C21.2224 20.7059 20.3271 21.6015 19.2227 21.6015H4.18164C3.07743 21.6013 2.18283 20.7057 2.18262 19.6015V9.50094H1.27051C0.569221 9.50094 2.1303e-05 8.93269 0 8.2314C0 7.80443 0.214771 7.40579 0.571289 7.17086L10.958 0.330037ZM11.8184 13.9013C10.7138 13.9013 9.81836 14.7968 9.81836 15.9013V21.6005H14.1816V15.9013C14.1816 14.7968 13.2862 13.9014 12.1816 13.9013H11.8184Z" fill="white"/>
</svg>
