<svg width="78" height="45" viewBox="0 0 78 45" fill="none" xmlns="http://www.w3.org/2000/svg">
<path d="M52.9199 26.7532C48.6879 27.8099 45.3855 29.5033 43.359 31.6333C41.9214 33.1033 41.1247 34.8433 40.7782 36.6433L40.6743 37.9833L40.6974 38.3966L42.2158 38.3733C42.3024 38.3233 42.3948 38.3766 42.5738 38.3799C42.9318 38.3866 43.1973 38.3399 43.6419 38.2966L44.531 38.2099L44.5887 37.6433C44.583 37.5399 44.5714 37.3333 44.6523 37.1799C44.8255 35.4799 45.6337 33.9466 46.9905 32.6299C48.6822 30.9066 51.286 29.5099 54.8136 28.6466C57.7235 27.9266 62.9831 26.0633 65.7833 21.7799L65.8641 21.6266L65.8468 21.3166C65.7544 21.2633 65.841 21.2133 65.8352 21.1099C65.714 20.5399 65.5928 19.9699 65.2925 19.3966L64.1609 16.7433L63.0524 19.3033C61.3838 23.0399 58.1218 25.4566 52.9199 26.7532Z" fill="#3C315B"/>
<path d="M31.0787 27.8434C32.7704 26.12 35.3742 24.7234 38.9018 23.86C42.7816 22.9 51.4534 19.7067 51.7537 10.68L51.6671 9.13004L51.6613 9.0267L51.6382 8.61337L51.0031 8.44671C50.547 8.28338 49.9119 8.11672 49.2768 7.95005L47.5505 7.45337L47.6083 8.4867C47.7064 8.64337 47.6256 8.7967 47.6371 9.00337C47.9835 13.6034 46.3439 19.4567 37.0024 21.8634C32.7704 22.92 29.4679 24.6134 27.4414 26.7434C25.5015 28.8234 24.6471 31.13 24.6124 33.71L24.52 33.6567L24.699 35.26C24.7914 35.3134 24.7048 35.3634 24.7106 35.4667L24.7279 35.7767L25.184 35.94C25.7325 36.1567 26.3676 36.3234 26.916 36.54L28.9137 37.0934L28.5788 35.9C28.4807 35.7434 28.5615 35.59 28.4634 35.4334C28.5269 33.37 28.5442 30.48 31.0787 27.8434Z" fill="#3C315B"/>
<path d="M21.0155 31.7333C20.7904 29.3033 21.6564 27.2033 23.3422 25.3766C25.0339 23.6533 27.6377 22.2566 31.1653 21.3933C42.008 18.6533 43.7747 11.8733 44.0403 8.62662L43.9652 7.2833L44.0287 6.81995L43.1281 6.69996C42.5911 6.68996 42.0484 6.57662 41.4191 6.51329L40.1605 6.38661L40.2009 7.10996C40.2066 7.21329 40.2182 7.41995 40.224 7.52328C40.2817 11.7566 38.44 17.1933 29.4448 19.4C25.2129 20.4566 21.9104 22.15 19.8839 24.28C18.6195 25.65 17.8112 27.1833 17.2801 28.8766L17.0318 30.8333C17.0434 31.04 17.0491 31.1433 17.0607 31.35L17.0722 31.5566L17.3494 31.7166C17.9094 32.14 18.556 32.5133 19.0237 32.8833L21.2465 34.2666L21.0559 32.4566C21.0444 32.25 20.9405 31.99 21.0155 31.7333Z" fill="#3C315B"/>
<path d="M61.713 28.93L62.0941 29.35L61.713 28.93C61.3608 29.0266 61.0952 29.0733 60.7431 29.17C56.5111 30.2266 53.2086 31.92 51.1821 34.05C50.7607 34.5066 50.3392 34.9633 50.0101 35.4733L48.9478 37.26L48.7053 37.72L51.084 37.0933C51.7884 36.9 52.4927 36.7066 53.1971 36.5133L53.5493 36.4166L53.7167 36.2133C53.8841 36.01 53.9592 35.7533 54.219 35.6033C54.3922 35.5033 54.473 35.35 54.5539 35.1966C56.0781 33.6766 58.3297 32.3766 61.586 31.4566C61.9382 31.36 62.2038 31.3133 62.556 31.2166L63.1737 31.0733L63.3411 30.87C63.7626 30.4133 64.2707 29.9066 64.5132 29.4466L66.0143 27.5133L62.8562 28.59C62.504 28.6866 62.0652 28.8333 61.713 28.93Z" fill="#3C315B"/>
<path d="M55.8413 10.2401L55.9279 11.7901C55.9394 11.9968 55.951 12.2034 55.9625 12.4101C56.0145 16.5401 54.1785 22.0801 45.1834 24.2868C40.9514 25.3434 37.649 27.0368 35.6225 29.1668C33.7692 31.1968 32.8223 33.4501 32.8743 35.9801L33.0417 37.3768L33.1572 37.8434L34.0579 37.9634C34.6872 38.0268 35.1375 38.0868 35.6802 38.2001L37.0312 38.3801L36.8061 37.5501C36.8003 37.4468 36.7887 37.2401 36.7829 37.1368C36.4596 34.5501 37.2333 32.3968 39.0923 30.4701C40.784 28.7468 43.3878 27.3501 46.9154 26.4868C49.9119 25.7168 52.4407 24.5768 54.4153 23.1168C57.9371 20.5501 59.519 16.8634 59.7846 13.6168C59.7731 13.4101 59.8539 13.2568 59.8423 13.0501L59.825 12.7401L59.5479 12.5801C58.9936 12.2601 58.4336 11.8368 57.8794 11.5168L55.8413 10.2401Z" fill="#3C315B"/>
<path d="M14.4338 24.3335L13.6197 24.1634L14.4338 24.3335C14.6763 23.8735 15.0978 23.4168 15.4326 23.0101C17.1242 21.2868 19.7281 19.8901 23.2557 19.0268C25.5478 18.4501 27.4704 17.6601 29.289 16.6101C32.9263 14.5101 35.178 11.6101 35.8766 8.11345L36.0671 6.72344L36.1306 6.26011L34.7045 6.33677C34.1676 6.32677 33.5441 6.36678 33.0129 6.46011L32.1238 6.54678L32.0603 7.01011C31.9795 7.16345 32.0776 7.32011 31.9968 7.47344C31.1019 12.2568 27.5281 15.4934 21.4428 16.9801C17.1243 18.0868 13.7294 19.7268 11.6279 22.1134C11.4604 22.3168 11.293 22.5201 11.039 22.7734L10.9581 22.9268L10.9754 23.2368C11.0678 23.2901 10.9812 23.3401 10.987 23.4434C11.1949 23.9634 11.2237 24.4801 11.4316 25.0001L12.465 27.4968L13.6717 25.0934C14.1047 24.8434 14.2664 24.5368 14.4338 24.3335Z" fill="#3C315B"/>
<path d="M15.2536 16.6067L15.6058 16.51C17.1935 16.1267 19.3875 15.3933 21.5525 14.1433C23.8042 12.8433 25.415 11.2733 26.6563 9.48998L27.9553 7.13999L25.4901 7.81665C24.7857 8.00999 24.0813 8.20333 23.3827 8.5L23.1229 8.64999L22.9555 8.85331C22.788 9.05664 22.713 9.31333 22.5456 9.51667C20.9636 11.6033 18.5503 13.21 15.2998 14.2333C14.9476 14.33 14.5954 14.4267 14.2433 14.5233L13.8911 14.62L13.7236 14.8233C13.3888 15.23 13.0539 15.6367 12.8114 16.0967L11.7433 17.78L14.4684 16.9533C14.5493 16.8 14.9014 16.7033 15.2536 16.6067Z" fill="#3C315B"/>
</svg>
