<svg width="44" height="46" viewBox="0 0 44 46" fill="none" xmlns="http://www.w3.org/2000/svg">
<path d="M25.8 35.3066C22.3 33.9199 18.7 33.7066 15.4 34.6666C13.1 35.3066 10.9 36.5866 8.90002 38.1866L7.5 39.4666L7.10001 39.8933L8 40.7466C8.1 40.7466 8.10001 40.8533 8.20001 40.96C8.40001 41.1733 8.60002 41.28 8.90002 41.4933L9.5 41.92L10.1 41.3866C10.2 41.28 10.4 41.0666 10.6 40.96C12.4 39.36 14.4 38.2933 16.5 37.76C19.2 37.0133 22.1 37.12 25 38.2933C27.4 39.2533 32.3 40.4266 38.2 37.76L38.4 37.6533L38.7 37.3333C38.7 37.2266 38.8 37.2266 38.9 37.12C39.4 36.48 39.9 35.84 40.3 35.0933L42.3 31.7866L39.1 33.7066C34.4 36.4799 30.1 37.0133 25.8 35.3066Z" fill="#3C315B"/>
<path d="M12.1 23.7866C14.8 23.04 17.7 23.1466 20.6 24.32C23.8 25.6 32 27.4133 41.2 18.56L42.7 16.96L42.8 16.8533L43.2 16.4266L43 15.8933C42.9 15.4666 42.7 14.9333 42.5 14.4L42 12.9066L41 13.9733C40.9 14.1866 40.7 14.2933 40.5 14.5066C36.1 19.3066 29.3 24.2133 21.5 21.2266C18 19.84 14.4 19.6266 11.1 20.5866C7.90001 21.5466 5.1 23.36 2.5 25.92V25.8133L1 27.52C1 27.6266 0.900018 27.6266 0.800018 27.7333L0.5 28.0533L0.600006 28.48C0.700006 29.0133 0.9 29.5466 1 30.08L1.60001 31.7866L2.60001 30.4C2.70001 30.1866 2.9 30.08 3 29.8666C5.1 27.84 8.00001 24.96 12.1 23.7866Z" fill="#3C315B"/>
<path d="M2.40002 21.8667C4.70002 19.3067 7.30001 17.7067 10.1 16.8534C12.8 16.1067 15.7 16.2134 18.6 17.3867C27.6 20.9067 35.4 15.1467 38.8 12.0534L40.1 10.6667L40.6 10.24L40.2 9.60006C39.9 9.28006 39.7 8.85338 39.4 8.42672L38.8 7.57336L38.1 8.32004C38 8.42671 37.8 8.64004 37.7 8.7467C33.5 13.0134 27 17.3867 19.6 14.4001C16.1 13.0134 12.5 12.8001 9.20001 13.7601C7.10001 14.4001 5.10001 15.4667 3.10001 16.8534L1 18.6667C0.8 18.8801 0.7 18.9867 0.5 19.2001L0.300018 19.4134V19.7334C0.200018 20.4801 0.200006 21.2267 0.100006 21.8667L0 24.5334L1.70001 22.6134C1.90001 22.4 2.10002 22.0801 2.40002 21.8667Z" fill="#3C315B"/>
<path d="M28.7 42.56L28.5 43.2L28.7 42.56C28.4 42.4533 28.2 42.3466 27.9 42.2399C24.4 40.8533 20.8 40.64 17.5 41.6C16.8 41.8133 16.1 42.0266 15.4 42.3466L13 43.52L12.4 43.8399L14.4 44.5866C15 44.8 15.6 45.0133 16.2 45.2266L16.5 45.3333L16.8 45.2266C17.1 45.12 17.4 44.9066 17.7 44.9066C17.9 44.9066 18.1 44.8 18.3 44.6933C20.7 44.0533 23.3 44.0533 26.1 45.0133C26.4 45.1199 26.6 45.2266 26.9 45.3333L27.4 45.5466L27.7 45.4399C28.4 45.2266 29.2 45.0133 29.8 44.6933L32.6 43.6266L29.7 42.8799C29.4 42.7733 29 42.6666 28.7 42.56Z" fill="#3C315B"/>
<path d="M44 20.48L42.5 22.08C42.3 22.2933 42.1 22.5067 41.9 22.72C37.8 26.88 31.2 31.36 23.8 28.3733C20.3 26.9866 16.7 26.7733 13.4 27.7333C10.3 28.6933 7.5 30.4 5 32.96L3.70001 34.4533L3.30002 34.9867L3.70001 35.6267C4.00001 36.0533 4.20002 36.3733 4.40002 36.8L5 37.76L5.70001 36.8C5.80001 36.6933 6.00001 36.48 6.10001 36.3733C8.50001 33.6 11.1 31.8933 14.1 31.04C16.8 30.2933 19.7 30.4 22.6 31.5733C25.1 32.5333 27.7 32.8533 30.3 32.5333C34.9 32 39.5 29.2267 42.9 26.1333C43.1 25.92 43.3 25.8133 43.5 25.6L43.8 25.28V24.96C43.8 24.32 43.9 23.5733 43.9 22.9333L44 20.48Z" fill="#3C315B"/>
<path d="M6 10.6667L5.70001 10.0267L6 10.6667C6.6 10.3467 7.30002 10.1334 7.90002 9.92004C10.6 9.17338 13.5 9.28004 16.4 10.4534C18.3 11.2 20.2 11.52 22.3 11.52C26.5 11.52 30.7 9.92005 34.6 6.82672L36.1 5.5467L36.6 5.12004L35.7 4.37336C35.4 4.05336 35 3.73338 34.6 3.52004L34 3.09338L33.5 3.52004C33.3 3.62671 33.2 3.84004 33 3.9467C27.7 8.21337 22.4 9.38672 17.4 7.36005C13.8 5.97338 10.2 5.65338 6.60001 6.82672C6.30001 6.93338 6.00001 7.04004 5.60001 7.1467L5.40002 7.25338L5.10001 7.57336C5.10001 7.68003 5.00002 7.68004 4.90002 7.78671C4.50002 8.42671 4.00001 8.96006 3.60001 9.60006L1.70001 12.6934L4.80002 10.9867C5.30002 10.9867 5.7 10.7734 6 10.6667Z" fill="#3C315B"/>
<path d="M14.2 3.41331L14.5 3.51999C15.8 4.05332 17.8 4.58665 20.3 4.58665C22.9 4.58665 25.4 3.94665 27.9 2.87998L31 1.27998L28.9 0.533333C28.3 0.32 27.7 0.106667 27 0H26.7L26.4 0.106641C26.1 0.213307 25.8 0.426667 25.5 0.533333C22.5 1.70667 19.5 1.92 16.6 1.06667C16.3 0.96 16 0.853314 15.7 0.746647L15.4 0.639974L15.1 0.746647C14.5 0.959981 13.9 1.17333 13.3 1.49333L11 2.55999L13.4 3.30664C13.6 3.19997 13.9 3.30665 14.2 3.41331Z" fill="#3C315B"/>
</svg>
