<svg width="17" height="18" viewBox="0 0 17 18" fill="none" xmlns="http://www.w3.org/2000/svg">
<path fill-rule="evenodd" clip-rule="evenodd" d="M16.6556 14.6406C17.1006 10.3639 17.1006 6.05257 16.6556 1.77587C16.4969 0.250823 14.7386 -0.521692 13.508 0.393029L9.40436 3.44344C8.15391 4.37295 6.63728 4.8749 5.0792 4.8749H1.25C0.559644 4.8749 0 5.43454 0 6.1249V10.2916C0 10.9819 0.559642 11.5416 1.25 11.5416H1.87428L1.02892 14.6965C0.93472 15.048 1.10653 15.4165 1.4364 15.5703L5.11754 17.2869C5.31846 17.3806 5.55055 17.3806 5.75147 17.2869C5.9524 17.1932 6.10158 17.0154 6.15896 16.8013L7.42165 12.0889C7.43506 12.0388 7.44308 11.9886 7.44606 11.9388C8.14353 12.1797 8.80457 12.5272 9.40437 12.973L13.508 16.0234C14.7386 16.9382 16.4969 16.1656 16.6556 14.6406ZM15.1636 1.9311C15.5979 6.10459 15.5979 10.3119 15.1636 14.4854C15.1253 14.854 14.7003 15.0407 14.4029 14.8196L10.2992 11.7692C8.79006 10.6474 6.95964 10.0416 5.07919 10.0416L1.5 10.0416L1.5 6.3749H5.0792C6.95964 6.3749 8.79006 5.7691 10.2992 4.64727L14.4029 1.59686C14.7003 1.37578 15.1253 1.56249 15.1636 1.9311ZM6.00695 11.6012C5.70055 11.5616 5.3907 11.5416 5.07919 11.5416H3.42719L2.64069 14.4768L4.94141 15.5497L5.97276 11.7006C5.98198 11.6662 5.99344 11.633 6.00695 11.6012Z" fill="white"/>
</svg>
